<?xml version="1.0" encoding="UTF-8" standalone="no"?><svg xmlns="http://www.w3.org/2000/svg" xmlns:xlink="http://www.w3.org/1999/xlink" contentStyleType="text/css" height="277px" preserveAspectRatio="none" style="width:449px;height:277px;background:#FFFFFF;" version="1.1" viewBox="0 0 449 277" width="449px" zoomAndPan="magnify"><defs/><g><!--MD5=[8121999359287d956af412327ff470eb]
cluster sp--><g id="cluster_sp"><path d="M89.5,6 L327.5,6 A3.75,3.75 0 0 1 330,8.5 L337,28.2969 L439.5,28.2969 A2.5,2.5 0 0 1 442,30.7969 L442,183.5 A2.5,2.5 0 0 1 439.5,186 L89.5,186 A2.5,2.5 0 0 1 87,183.5 L87,8.5 A2.5,2.5 0 0 1 89.5,6 " style="stroke:#000000;stroke-width:1.5;fill:none;"/><line style="stroke:#000000;stroke-width:1.5;fill:none;" x1="87" x2="337" y1="28.2969" y2="28.2969"/><text fill="#000000" font-family="sans-serif" font-size="14" font-weight="bold" lengthAdjust="spacing" textLength="237" x="91" y="20.9951">ServiceNow Platform Instance</text></g><!--MD5=[d5ac3844f66b12d9e08170e47495e096]
cluster app--><g id="cluster_app"><rect height="97" rx="2.5" ry="2.5" style="stroke:#181818;stroke-width:1.0;fill:none;" width="283" x="127" y="57"/><rect height="10" style="stroke:#181818;stroke-width:1.0;fill:none;" width="15" x="390" y="62"/><rect height="2" style="stroke:#181818;stroke-width:1.0;fill:none;" width="4" x="388" y="64"/><rect height="2" style="stroke:#181818;stroke-width:1.0;fill:none;" width="4" x="388" y="68"/><text fill="#000000" font-family="sans-serif" font-size="14" font-weight="bold" lengthAdjust="spacing" textLength="267" x="135" y="82.9951">Server-side Scripted Web Service</text></g><!--MD5=[e4c3e47d3531a90d02e4ed5bff03e78a]
entity This Script--><g id="elem_This Script"><rect fill="#F1F1F1" height="46.2969" rx="2.5" ry="2.5" style="stroke:#181818;stroke-width:0.5;" width="112" x="212" y="92"/><rect fill="#F1F1F1" height="10" style="stroke:#181818;stroke-width:0.5;" width="15" x="304" y="97"/><rect fill="#F1F1F1" height="2" style="stroke:#181818;stroke-width:0.5;" width="4" x="302" y="99"/><rect fill="#F1F1F1" height="2" style="stroke:#181818;stroke-width:0.5;" width="4" x="302" y="103"/><text fill="#000000" font-family="sans-serif" font-size="14" lengthAdjust="spacing" textLength="72" x="227" y="124.9951">This Script</text></g><!--MD5=[ac40dd4c03671801018102ca7be9c337]
entity rest--><g id="elem_rest"><ellipse cx="95" cy="239" fill="#F1F1F1" rx="8" ry="8" style="stroke:#181818;stroke-width:0.5;"/><text fill="#000000" font-family="sans-serif" font-size="14" lengthAdjust="spacing" textLength="178" x="6" y="268.9951">HTTPS REST API Endpoint</text></g><!--MD5=[78b2f91e530428ecc3e5b54404898d8a]
link sp to rest--><g id="link_sp_rest"><path d="M95,186.2457 C95,189.1824 95,192.0898 95,194.9398 C95,206.34 95,216.8225 95,224.59 " fill="none" id="sp-to-rest" style="stroke:#181818;stroke-width:1.0;stroke-dasharray:7.0,7.0;"/><polygon fill="#181818" points="95,229.86,99,220.86,95,224.86,91,220.86,95,229.86" style="stroke:#181818;stroke-width:1.0;"/></g><!--MD5=[8cdff8c5f353c739f3fe6bebdfdc795b]
@startuml Problem Management

interface "HTTPS REST API Endpoint" as rest

package "ServiceNow Platform Instance" as sp {
    component "Server-side Scripted Web Service" as app {
        component "This Script"
    }
}

sp ..> rest

@enduml

PlantUML version 1.2022.3(Tue Mar 29 16:10:57 UTC 2022)
(GPL source distribution)
Java Runtime: OpenJDK Runtime Environment
JVM: OpenJDK 64-Bit Server VM
Default Encoding: UTF-8
Language: en
Country: null
--></g></svg>